<svg xmlns="http://www.w3.org/2000/svg" version="1.1" width="600px" height="600px" xlink="http://www.w3.org/1999/xlink" style="overflow:hidden!important;"><g id="svga-group-wrapper" transform="scale(3 3)"><g id="svga-group-backs-single"></g><g id="svga-group-subwrapper" ><g id="svga-group-hair-back" ><path id="SvgjsPath4187" d="M160.527 108.896c-0.826 32.13-25.267 102.589-58.469 102.589 -33.201 0-60.969-69.5-61.767-102.589 -1.15-47.67 26.917-86.339 60.118-86.339C133.611 22.558 161.753 61.229 160.527 108.896z" fill="#000000" stroke-width="none" opacity="1"></path></g><g id="svga-group-humanbody-single"><path id="SvgjsPath2761" d="M190.858 199.866c-6.008-10.158-13.474-11.973-19.628-13.936 -6.323-2.016-19.346-3.178-26.449-4.6 -6.86-1.373-23.153-5.789-23.339-13.488 -0.192-8.066 4.291-40.09 4.291-40.09H74.005c0 0 4.487 32.023 4.294 40.09 -0.184 7.699-16.48 12.115-23.341 13.488 -7.104 1.422-20.125 2.584-26.448 4.6 -6.156 1.963-13.624 3.777-19.632 13.936 -3.644 6.16-6.008 16.133-6.008 27.133h194C196.869 215.999 194.509 206.026 190.858 199.866z" fill="#f3d4cf" stroke-width="none" opacity="1" stroke="none"></path><path id="SvgjsPath2762" d="M121.442 167.843c2.495 10.929 18.165 13.698 26.293 15.325 21.909 4.379 33.772 5.134 42.297 19.539 2.903 4.916 5.459 15.864 5.962 24.153 1.835 0.291 0.531-17.432-5.136-26.994 -9.742-16.472-29.089-15.135-46.077-18.535C137.921 179.958 121.628 175.542 121.442 167.843L121.442 167.843zM78.558 167.843c-0.186 7.699-16.479 12.115-23.339 13.488 -16.988 3.4-36.335 2.063-46.077 18.535 -5.667 9.563-6.971 27.285-5.136 26.994 0.503-8.289 3.059-19.237 5.962-24.153 8.524-14.405 20.388-15.16 42.297-19.539C60.393 181.541 76.063 178.771 78.558 167.843L78.558 167.843z" fill="#fff4f3" stroke-width="none" opacity="1" stroke="none"></path><path id="SvgjsPath2763" d="M51.206 189.513c0 0 28.641 0.299 33.473 1.885 2.314 0.758 8.372 5.633 8.372 5.633s-6.556-3.17-8.658-3.758C79.51 191.909 51.206 189.513 51.206 189.513zM99.795 199.999c2.053-0.041 7.887-3.799 7.887-3.799s-5.574 2.059-7.342 2.16c-1.491 0.086-6.366-1.238-6.366-1.238S98.112 200.032 99.795 199.999zM117.008 192.757c6.75-1.818 29.786-3.23 29.786-3.23s-23.791-0.516-30.51 1.725c-2.252 0.752-7.562 5.16-7.562 5.16S114.786 193.354 117.008 192.757z" fill="#e4b3ab" stroke-width="none" opacity="1" stroke="none"></path><path id="SvgjsPath2764" d="M190.858 199.866c-9.741-16.471-29.122-15.142-46.077-18.535 -6.86-1.373-23.153-5.789-23.339-13.488 -0.192-8.066 4.291-40.09 4.291-40.09H74.005c0 0 4.487 32.023 4.294 40.09 -0.184 7.699-16.48 12.115-23.341 13.488 -7.104 1.422-20.125 2.584-26.448 4.6 -6.156 1.963-13.624 3.777-19.632 13.936 -3.644 6.16-6.008 16.133-6.008 27.133h194C196.869 215.999 194.509 206.026 190.858 199.866z" fill="none" stroke="#c5796d" stroke-width="1.5" opacity="1"></path></g><g id="svga-group-chinshadow-single"><path id="SvgjsPath4249" d="M100.021 171.27c5.607-0.009 13.53-3.627 20.967-8.478 0.485-6.84 1.756-17.341 2.758-25.098 -13.972-1.825-33.828-1.785-47.741 0.101 0.995 7.702 2.249 18.065 2.739 24.877C86.278 167.593 94.344 171.279 100.021 171.27z" fill="url(#SvgjsLinearGradient4250)" opacity="1"></path></g><g id="svga-group-clothes-single" ><path id="SvgjsPath4196" d="M2.258 224.437c-2.481-20.683 6.836-35.34 29.389-41.745 6.619-1.876 14.221-2.843 15.221-2.903 -0.032-0.179-0.039-0.169-0.039-0.532h-0.03c0.074-6.837 7.69-5.493 9.87-5.953 8.623-1.833 11.551-10.877 21.398-8.496 0.242 2.074 0.063 4.47-1.168 13.335 9.286 19.972 19.359 18.247 22.939 29.43 3.245-10.001 14.771-11.587 23.26-29.433 -0.558-5.015-1.771-9.396-1.261-13.568l0.05-0.036c6.596-2.198 9.477 0.747 12.104 3.281 8.005 7.727 12.259 2.831 16.262 6.355 1.592 1.403 2.167 3.398 2.167 5.54 18.244 2.649 49.051 3.68 44.89 44.185l0.079 0.09C178.926 223.985 54.422 228.609 2.258 224.437z" fill="#152c5e" stroke-width="none" opacity="1" stroke="none"></path><path id="SvgjsPath4197" d="M100.187 206.617c3.609-9.059 14.44-11.18 22.618-27.884 0.08-0.092 0.291-0.507 0.557-1.056 -0.135-1.56-0.313-3.188-1.034-4.899 -0.442-2.854-0.796-5.524-0.496-8.114 1.68 0.489 3.271 1.072 4.362 2.264 1.601 1.748 0.386 4.776-1.148 7.69C122.164 187.172 114.949 196.237 100.187 206.617zM168.869 197.402c2.5 8.834 4.167 18.167 2.165 27.128 1.67-0.041 2.288-0.081 3.84-0.118C175.566 215.002 173.869 204.736 168.869 197.402zM132 199c-10.913 6.366-21.885 8.816-31.799 17.276 -9.916-8.437-20.994-9.911-31.906-16.276 -5-2-12.672-9.104-17.36-14.104 14.75 22.375 25.309 16.026 48.934 31.108 23.625-15.082 34.25-9.957 49-32.332C144.182 189.673 137 197 132 199zM99.796 207.68c-3.609-9.059-14.018-12.242-22.196-28.946 -0.08-0.092-0.291-0.507-0.557-1.056 0.135-1.56-0.22-3.273 0.5-4.985 0.442-2.854 0.635-5.185 0.335-7.774 -1.68 0.489-2.577 0.818-3.667 2.01 -1.601 1.748-0.386 4.776 1.148 7.69C78.241 187.172 85.034 197.3 99.796 207.68zM28.536 196.402c-3.667 8-3.697 18.6-3.005 28.01 1.552 0.037 2.17 0.077 3.84 0.118C27.369 215.569 27.869 205.402 28.536 196.402zM99.869 209.409c13.958-4.18 28.804-11.829 41.144-30.515 -11.142 15.02-27.705 23.887-40.827 29.327 -13.536-4.901-29.742-14.66-39.19-27.776C72.066 198.567 85.911 205.229 99.869 209.409z" fill="#0a1f4f" stroke-width="none" opacity="1" stroke="none"></path><path id="SvgjsPath4198" d="M197.389 223.985c-0.097 0-0.216 0.001-0.318 0.001 -0.359-7.608-1.073-15.39-5.076-22.251 -8-15-25-15.375-40.994-18.735 -2 0-3.032-5.541-4.506-7.015 -1.25-1.25-10.875-1.25-13.926-9.508 0.494 0.438 0.963 0.895 1.423 1.338 8.005 7.727 12.259 2.831 16.262 6.355 1.592 1.403 2.167 3.398 2.167 5.54 18.244 2.649 49.051 3.68 44.89 44.185L197.389 223.985zM2.017 224.985c0.097 0 0.216 0.001 0.318 0.001 0.359-7.608 1.173-13.796 5.176-20.657 8-15 25.299-18.367 41.293-21.728 2.939-1.116 1.391-3.242 2.864-4.716 1.25-1.25 8.2-1.275 17.825-11.4 -0.494 0.438-2.62 0.887-3.08 1.33 -8.005 7.727-14.045 5.545-16.262 6.355 -2.735 1-3.158 3.423-3.158 5.564 -18.244 2.649-46.994 8-44.898 45.16L2.017 224.985z" fill="#233b6d" stroke-width="none" opacity="1" stroke="none"></path><path id="SvgjsPath4199" d="M196.159 204.835c-6.314-22.445-28.114-22.805-43.64-25.21 0-8.395-7.898-6.726-11.53-7.5 -8.012-1.717-7.761-10.998-19.24-7.649 -0.483 3.964 0.445 7.44 1.26 13.62 -8.416 17.668-20.089 19.653-23.169 29.149 -3.372-10.536-13.67-9.479-22.84-29.09 1.274-9.228 1.403-11.365 1.16-13.43 -8.753-1.998-10.727 3.679-18.64 7.47 -4.8 2.249-6.159 0.228-10.28 2.24 -1.71 0.83-2.57 3.08-2.51 4.91 -0.01 0.01 0 0.01 0 0.01 0 0.12 0 0.229 0.02 0.34 -1 0.065-8.597 1.049-15.13 2.9 -22.821 6.48-31.958 21.382-29.45 41.939 10.13 0 20.114 3.728 175.28-0.069 7.202-0.181 19.426-0.381 19.939-0.381C197.569 223.085 198.475 213.097 196.159 204.835zM2.309 224.315c-1.146-27.296 17.235-39.776 44.34-44.05 15.316 25.402 34.063 21.702 53.02 35.91 -17.183-14.276-35.189-12.385-52.5-36.25 -0.194-1.997 0.851-4.209 3.01-5.07 1.53-0.601 3.17-0.43 4.77-0.42 6.04 0.05 10.69-4.681 15.16-8.15 2.13-1.42 5.3-1.49 7.84-1.1 0.198 3.302-1.077 8.271-1.5 11.79 -0.89-1.96-1.73-3.971-2.57-5.98 10.623 31.175 21.215 24.115 25.95 37.05 -1-0.279-17.902-6.352-31.37-19.739 -2.86-2.831-8.527-9.069-8.96-9.65 16.676 22.564 27.331 23.715 40.38 29.53 0 0.01 0.01 0.03 0.01 0.04 0.011 0.033 0.064 0.188 0.08 0.22 0.06-0.03 0.13-0.06 0.2-0.08 0.02-0.02 0.04-0.03 0.07-0.03 1.807-0.882 13.688-5.019 22.729-11.229 9.309-6.403 19.925-20.281 19.131-19.28 -15.556 15.814-17.958 19.4-41.931 30.37 -0.02 0-0.04-0.01-0.06-0.02 -0.02-0.11-0.05-0.221-0.09-0.33 0.01-0.051 0.03-0.101 0.05-0.15 4.212-11.556 16.587-7.09 26.84-38.78 -1.05 2.74-2.15 5.44-3.39 8.08 -0.389-4.649-1.741-8.305-1.591-12.13 1.777-0.593 6.598-0.873 7.931 0.46 5.566 4.755 6.012 8.24 15.08 8.24 2.9 0.019 6.703 0.384 7.13 5.71 -0.53 0.786-4.503 5.471-8.26 9.2 -13.155 13.082-24.923 13.333-43.13 27.25 0.45 0 1.37-0.96 1.73-1.21 14.236-10.101 24.469-9.945 37.56-20.641 6.031-4.927 11.838-12.81 12.46-13.81 0.021 0.01 0.051 0.01 0.07 0.01 24.023 4.132 45.554 8.064 44.61 43.83C89.435 223.233 55.562 226.094 2.309 224.315z" fill="#000f30" stroke-width="none" opacity="1" stroke="none"></path></g><g id="svga-group-head" ><g id="svga-group-ears-left" ><path id="SvgjsPath4303" d="M47.001 83.974c-1.376-2.313-5.638-7.997-9.98-6.603 -2.749 0.882-3.293 3.765-3.735 6.311 -0.588 3.386 0.471 10.083 1.389 12.503 0.881 2.325 3.533 6.816 5.264 8.527 2.13 2.1 4.775 8.793 5.194 9.487 0.66 1.097 1.536 2.745 4.122 2.538 2.853-0.229 4.584-1.742 5.856-1.999C58.253 114.109 50.582 89.995 47.001 83.974z" fill="#f3d4cf" stroke="#c5796d" stroke-width="1.5" opacity="1"></path><path id="SvgjsPath4304" d="M44.197 97.997c-0.132-0.548 0.007-1.47 0.142-2.362 0.124-0.812 0.24-1.579 0.169-2.121 -0.267-2.032-1.773-5.893-2.757-7.985 -1.132-2.407-2.963-5.439-5.262-6.221 -0.95-0.324-1.575 0.063-1.938 0.456 -0.266 0.289-0.325 0.627-0.238 0.667 0.086 0.04 0.285-0.24 0.572-0.504 0.235-0.216 0.579-0.402 1.051-0.363 -0.19 1.011-1.167 6.49-0.744 10.225 0.333 2.938 1.593 5.131 1.79 5.46 0.029 0.346 0.077 0.685 0.148 1.014 0.929 4.287 4.971 9.163 6.378 10.758 0.259 0.295 0.531 0.47 0.598 0.398 0.066-0.072-0.094-0.364-0.353-0.66 -1.388-1.585-5.391-6.442-6.289-10.579 -0.952-4.389 2.318-10.896 3.048-12.272 0.371 0.646 0.687 1.267 0.93 1.785 0.19 0.406 0.402 0.881 0.619 1.395 -0.429 0.718-3.434 5.958-2.338 10.153 0.406 1.546 2.235 3.54 3.447 4.086 0.667 0.301 0.919 0.75 1.209 1.271 0.336 0.604 0.718 1.288 1.828 1.784 0.225 0.102 0.429 0.142 0.61 0.142 0.313 0 0.551-0.126 0.725-0.276 0.018 0.266 0.017 0.604 0.009 0.917 -0.012 0.404 0.042 0.737 0.137 0.745 0.094 0.008 0.196-0.313 0.207-0.717 0.016-0.496 0.013-1.11-0.072-1.403 -0.248-0.865-1.008-1.841-1.813-2.875C45.221 99.896 44.403 98.844 44.197 97.997zM36.95 94.196c-2.177-6.731 0.656-12.54 1.144-13.464 0.85 0.775 1.6 1.811 2.21 2.824C39.86 84.365 37.041 89.669 36.95 94.196zM46.341 104.042c-1.004-0.447-1.339-1.051-1.666-1.633 -0.293-0.527-0.598-1.072-1.369-1.42 -0.168-0.075-0.352-0.191-0.542-0.323 -2.486-5.906 0.272-8.488 0.963-9.017 0.211 0.722 0.369 1.384 0.439 1.915 0.063 0.488-0.052 1.263-0.167 2.012 -0.142 0.929-0.286 1.89-0.137 2.512 0.226 0.926 1.069 2.009 1.884 3.057 0.723 0.929 1.466 1.888 1.721 2.67C47.359 103.972 47.017 104.345 46.341 104.042z" fill="#c5796d" stroke-width="none" opacity="1"></path></g><g id="svga-group-ears-right" ><path id="SvgjsPath4305" d="M152.736 83.974c1.377-2.313 5.639-7.997 9.98-6.603 2.75 0.882 3.293 3.765 3.736 6.311 0.588 3.386-0.471 10.083-1.389 12.503 -0.881 2.325-3.533 6.816-5.266 8.527 -2.129 2.1-4.775 8.793-5.193 9.487 -0.658 1.097-1.535 2.745-4.121 2.538 -2.854-0.229-4.584-1.742-5.857-1.999C141.484 114.109 149.156 89.995 152.736 83.974z" fill="#f3d4cf" stroke="#c5796d" stroke-width="1.5" opacity="1"></path><path id="SvgjsPath4306" d="M153.727 100.913c-0.805 1.033-1.564 2.009-1.813 2.875 -0.086 0.293-0.088 0.907-0.072 1.403 0.012 0.404 0.113 0.725 0.207 0.717s0.148-0.341 0.137-0.745c-0.008-0.313-0.008-0.651 0.01-0.917 0.174 0.15 0.412 0.276 0.725 0.276 0.182 0 0.385-0.04 0.609-0.142 1.109-0.496 1.492-1.18 1.828-1.784 0.289-0.52 0.543-0.969 1.209-1.271 1.213-0.546 3.041-2.54 3.447-4.086 1.096-4.194-1.908-9.435-2.338-10.153 0.217-0.513 0.43-0.988 0.619-1.395 0.244-0.518 0.559-1.139 0.93-1.785 0.73 1.377 4 7.883 3.049 12.272 -0.896 4.137-4.9 8.994-6.289 10.579 -0.258 0.296-0.418 0.588-0.352 0.66 0.066 0.071 0.338-0.104 0.598-0.398 1.406-1.596 5.449-6.471 6.379-10.758 0.07-0.329 0.117-0.668 0.146-1.014 0.197-0.329 1.459-2.523 1.791-5.46 0.422-3.735-0.555-9.214-0.744-10.225 0.473-0.039 0.814 0.146 1.051 0.363 0.287 0.264 0.486 0.544 0.572 0.504s0.027-0.378-0.238-0.667c-0.363-0.393-0.988-0.779-1.938-0.456 -2.299 0.782-4.131 3.814-5.262 6.221 -0.984 2.093-2.49 5.953-2.758 7.985 -0.072 0.542 0.045 1.309 0.17 2.121 0.135 0.892 0.273 1.814 0.141 2.362C155.336 98.844 154.518 99.896 153.727 100.913zM159.434 83.555c0.611-1.013 1.361-2.049 2.211-2.824 0.488 0.925 3.32 6.733 1.145 13.464C162.697 89.669 159.879 84.365 159.434 83.555zM152.27 103.816c0.254-0.782 0.998-1.741 1.721-2.67 0.816-1.048 1.658-2.131 1.885-3.057 0.148-0.622 0.004-1.583-0.137-2.512 -0.115-0.749-0.23-1.524-0.166-2.012 0.068-0.531 0.227-1.193 0.438-1.915 0.691 0.529 3.449 3.111 0.965 9.017 -0.191 0.132-0.375 0.248-0.543 0.323 -0.771 0.348-1.074 0.893-1.369 1.42 -0.326 0.582-0.662 1.186-1.666 1.633C152.721 104.345 152.379 103.972 152.27 103.816z" fill="#c5796d" stroke-width="none" opacity="1"></path></g><g id="svga-group-faceshape-wrap" ><g id="svga-group-faceshape-single" ><path id="SvgjsPath4246" d="M158.785 76.762l-0.005 0c-0.012 0.053-10.717 44.373-18.919 56.95 -6.452 9.895-28.166 25.54-39.84 25.558 -11.671 0.02-33.437-15.559-39.918-25.433C51.861 121.285 41.017 77 41.005 76.946h-0.001c-1.298-4.911-1.994-10.066-2.002-15.382C38.949 28.09 66.155 0.919 99.773 0.867c33.621-0.052 60.913 27.033 60.964 60.507C160.746 66.69 160.068 71.846 158.785 76.762z" fill="#f3d4cf" stroke-width="none" opacity="1"></path><path id="SvgjsPath4247" d="M125.766 6.622c19.104 10.248 32.075 30.355 32.039 53.476 -0.009 5.316-0.704 10.471-2.003 15.382h-0.001c-0.012 0.053-10.856 44.339-19.099 56.891 -5.946 9.061-24.555 25.121-36.833 25.121 -12.279 0-30.886-16.061-36.833-25.121 -8.242-12.552-19.086-56.837-19.098-56.891h-0.001c-1.298-4.911-1.994-10.066-2.002-15.382C41.898 36.977 54.87 16.87 73.972 6.622 53.277 16.324 38.963 37.28 39.001 61.564c0.008 5.316 0.704 10.471 2.002 15.382h0.001c0.012 0.053 10.856 44.339 19.098 56.891 4.416 6.728 15.922 16.095 26.5 21.382 -0.529-0.226-1.062-0.466-1.599-0.717 5.408 2.875 10.664 4.763 14.713 4.768 0.049 0 0.103-0.005 0.152-0.005s0.103 0.005 0.152 0.005c4.049-0.005 9.305-1.893 14.714-4.768 -0.538 0.253-1.071 0.491-1.601 0.718 10.577-5.287 22.085-14.655 26.501-21.383 8.242-12.552 19.087-56.837 19.098-56.891h0.002c1.298-4.911 1.994-10.066 2.002-15.382C160.775 37.28 146.462 16.324 125.766 6.622z" fill="#ebc3bd" stroke-width="none" opacity="1"></path><path id="SvgjsPath4248" d="M158.785 76.762l-0.005 0c-0.012 0.053-10.717 44.373-18.919 56.95 -6.452 9.895-28.166 25.54-39.84 25.558 -11.671 0.02-33.437-15.559-39.918-25.433C51.861 121.285 41.017 77 41.005 76.946h-0.001c-1.298-4.911-1.994-10.066-2.002-15.382C38.949 28.09 66.155 0.919 99.773 0.867c33.621-0.052 60.913 27.033 60.964 60.507C160.746 66.69 160.068 71.846 158.785 76.762z" fill="none" stroke="#c5796d" stroke-width="1.5" opacity="1"></path></g></g><g id="svga-group-mouth-single" ><path id="SvgjsPath4277" d="M99.983 143.169c-3.24 0-4.753-2.8-4.753-2.8s4.797 0.78 9.279-0.067C104.509 140.302 102.832 143.169 99.983 143.169z" fill="url(#SvgjsLinearGradient4278)" opacity="1"></path><path id="SvgjsPath4281" d="M99.869 137.399c-6.552 0-9.471-2.347-12-5.399h24C109.771 135.125 106.703 137.399 99.869 137.399z" fill="#ffffff" stroke-width="none" opacity="1"></path><path id="SvgjsPath4282" d="M99.869 137.399c-6.552 0-9.471-2.347-12-5.399h24C109.771 135.125 106.703 137.399 99.869 137.399z" fill="none" stroke="#c92066" stroke-width="0.75" opacity="1"></path></g><g id="svga-group-eyes-left" ><g id="svga-group-eyesback-left"><path id="SvgjsPath4975" d="M60.956 84.178c11.334-7.516 23.563-3.623 26.092 3.5 0.994 2.798 0.327 5.276-1.739 6.934C70.023 100.123 62.391 92.664 60.956 84.178z" fill="url(#SvgjsRadialGradient4976)" opacity="1"></path></g><g id="svga-group-eyesiriswrapper-left" transform="translate(-0.5 1.5)"><g id="svga-group-eyesiriscontrol-left" ><g id="svga-group-eyesiris-left" ><path id="SvgjsPath5033" d="M83.199 89.25c-1.231 4.522-5.896 7.187-10.429 5.944 -4.528-1.241-7.203-5.918-5.97-10.442 1.23-4.526 5.905-7.19 10.434-5.947C81.761 80.045 84.433 84.723 83.199 89.25z" fill="#131105" stroke="#000000" stroke-width="0.5" opacity="1"></path><path id="SvgjsPath5034" d="M81.878 89.354c-1.202 3.473-4.827 5.499-8.357 4.531 -3.258-0.894-5.315-4.02-5.048-7.325 1.209-0.096 2.532-0.124 3.904-0.056 -0.014 0.047-0.039 0.087-0.051 0.136 -0.434 1.594 0.576 3.265 2.256 3.726 1.685 0.461 3.401-0.462 3.835-2.056 0.055-0.208 0.085-0.417 0.093-0.623C79.66 88.108 80.792 88.651 81.878 89.354z" fill="#221f0c" stroke-width="none" opacity="1" stroke="none"></path><path id="SvgjsPath5035" d="M76.151 84.464c-1.703-0.487-3.44 0.485-3.88 2.181 -0.44 1.687 0.584 3.454 2.286 3.942 1.705 0.489 3.443-0.484 3.884-2.173C78.884 86.719 77.855 84.953 76.151 84.464zM76.523 90.46c-0.708 0.22-1.441-0.072-1.636-0.655 -0.188-0.582 0.231-1.228 0.945-1.443 0.712-0.22 1.442 0.073 1.639 0.651C77.665 89.593 77.241 90.24 76.523 90.46z" fill="#000000" stroke-width="none" opacity="0.9"></path><path id="SvgjsPath5036" d="M70.482 91.476c-0.523 0.314-1.307 0.034-1.754-0.633 -0.448-0.66-0.381-1.451 0.145-1.767 0.521-0.311 1.311-0.03 1.755 0.632C71.07 90.37 71.006 91.162 70.482 91.476z" fill="#ffffff" stroke-width="none" opacity="0.6"></path><path id="SvgjsPath5037" d="M81.673 86.632c-1.198 0.718-2.999 0.072-4.02-1.445 -1.02-1.518-0.867-3.331 0.332-4.047 1.196-0.721 3-0.074 4.015 1.444C83.019 84.101 82.871 85.913 81.673 86.632z" fill="#ffffff" stroke-width="none" opacity="0.9"></path></g></g></g><g id="svga-group-eyesfront-left"><path id="SvgjsPath5000" d="M56 88c0 13.808 8.06 24.999 18 24.999S92 101.808 92 88c0-13.809-8.06-25.001-18-25.001S56 74.191 56 88zM60.956 84.178c11.334-7.516 23.563-3.623 26.092 3.5 0.994 2.798 0.327 5.276-1.739 6.934C70.023 100.123 62.391 92.664 60.956 84.178z" fill="#f3d4cf" stroke-width="none" opacity="1"></path><path id="SvgjsPath5001" d="M58.286 88.081c0.025 8.284 8.099 14.961 18.043 14.918 9.939-0.047 17.979-6.796 17.957-15.08 -0.025-8.286-8.101-14.963-18.043-14.92C66.3 73.046 58.264 79.795 58.286 88.081zM60.956 84.178c11.334-7.516 23.563-3.623 26.092 3.5 0.994 2.798 0.327 5.276-1.739 6.934C70.023 100.123 62.391 92.664 60.956 84.178z" fill="url(#SvgjsRadialGradient5002)" opacity="1"></path><path id="SvgjsPath5006" d="M60.956 84.178c11.334-7.516 23.563-3.623 26.092 3.5 0.994 2.798 0.327 5.276-1.739 6.934C70.023 100.123 62.391 92.664 60.956 84.178z" fill="url(#SvgjsRadialGradient5007)" opacity="1"></path><path id="SvgjsPath5010" d="M67.99 77.86c6.02-0.57 13.485-1.112 20.077 3.386C79.514 77.213 75.347 77.714 67.99 77.86z" fill="#c5796d" stroke-width="none" opacity="1"></path><path id="SvgjsPath5011" d="M91.581 88.655c-1.807-2.671-3.564-4.351-6.535-6.319 1.776 0.43 3.052 0.963 5.007 1.944 -9.685-6.58-18.436-6.346-25.183-5.36l4.046 0.469 -2.973 0.675c-1.69 0.179-4.387-0.234-5.708-0.369l3.727 1.265c-1.922 0.919-4.02 0.629-6.643 0.475l2.031 1.622C57.485 83.25 55.904 82.72 54 82.067c2.144 3.765 4.103 5.901 7.695 7.897 1.612 2.208 2.915 3.317 5.439 4.805 -0.137 0.221-0.366 0.468-0.778 0.633 1.035-0.03 1.458-0.112 1.822 0 0.855 0.469 1.561 0.759 2.384 1.054 -0.377 0.269-0.646 0.381-1.173 0.474 1.02-0.094 1.959-0.311 2.554-0.158 2.582 0.303 4.583 0.346 7.408-0.211 1.183-0.263 2.188 0.03 3.111-0.053 -0.473-0.116-1.036-0.276-1.265-0.316l4.11-1.738C70.023 99.83 62.391 92.556 60.956 84.28c11.334-7.33 23.563-3.533 26.092 3.414 0.07-1.258-0.429-2.536-1.792-3.678C87.487 85.082 89.774 86.723 91.581 88.655z" fill="#000000" stroke-width="none" opacity="1"></path></g></g><g id="svga-group-eyes-right" ><g id="svga-group-eyesback-right"><path id="SvgjsPath4983" d="M139.044 84.178c-11.334-7.516-23.563-3.623-26.092 3.5 -0.994 2.798-0.327 5.276 1.739 6.934C129.977 100.123 137.609 92.664 139.044 84.178z" fill="url(#SvgjsRadialGradient4984)" opacity="1"></path></g><g id="svga-group-eyesiriswrapper-right" transform="translate(0.5 1.5)"><g id="svga-group-eyesiriscontrol-right" ><g id="svga-group-eyesiris-right" ><path id="SvgjsPath5038" d="M133.199 89.25c-1.231 4.522-5.896 7.187-10.429 5.944 -4.528-1.241-7.203-5.918-5.97-10.442 1.23-4.526 5.905-7.19 10.434-5.947C131.761 80.045 134.433 84.723 133.199 89.25z" fill="#131105" stroke="#000000" stroke-width="0.5" opacity="1"></path><path id="SvgjsPath5039" d="M131.878 89.354c-1.202 3.473-4.827 5.499-8.357 4.531 -3.258-0.894-5.315-4.02-5.048-7.325 1.209-0.096 2.532-0.124 3.904-0.056 -0.014 0.047-0.039 0.087-0.051 0.136 -0.434 1.594 0.576 3.265 2.256 3.726 1.685 0.461 3.401-0.462 3.835-2.056 0.055-0.208 0.085-0.417 0.093-0.623C129.66 88.108 130.792 88.651 131.878 89.354z" fill="#221f0c" stroke-width="none" opacity="1" stroke="none"></path><path id="SvgjsPath5040" d="M126.151 84.464c-1.703-0.487-3.44 0.485-3.88 2.181 -0.44 1.687 0.584 3.454 2.286 3.942 1.705 0.489 3.443-0.484 3.884-2.173C128.884 86.719 127.855 84.953 126.151 84.464zM126.523 90.46c-0.708 0.22-1.441-0.072-1.636-0.655 -0.188-0.582 0.231-1.228 0.945-1.443 0.712-0.22 1.442 0.073 1.639 0.651C127.665 89.593 127.241 90.24 126.523 90.46z" fill="#000000" stroke-width="none" opacity="0.9"></path><path id="SvgjsPath5041" d="M120.482 91.476c-0.523 0.314-1.307 0.034-1.754-0.633 -0.448-0.66-0.381-1.451 0.145-1.767 0.521-0.311 1.311-0.03 1.755 0.632C121.07 90.37 121.006 91.162 120.482 91.476z" fill="#ffffff" stroke-width="none" opacity="0.6"></path><path id="SvgjsPath5042" d="M131.673 86.632c-1.198 0.718-2.999 0.072-4.02-1.445 -1.02-1.518-0.867-3.331 0.332-4.047 1.196-0.721 3-0.074 4.015 1.444C133.019 84.101 132.871 85.913 131.673 86.632z" fill="#ffffff" stroke-width="none" opacity="0.9"></path></g></g></g><g id="svga-group-eyesfront-right"><path id="SvgjsPath5021" d="M126 62.999c-9.94 0-18 11.193-18 25.001 0 13.808 8.06 24.999 18 24.999S144 101.808 144 88C144 74.191 135.94 62.999 126 62.999zM114.691 94.612c-2.066-1.658-2.733-4.135-1.739-6.934 2.528-7.123 14.758-11.016 26.092-3.5C137.609 92.664 129.977 100.123 114.691 94.612z" fill="#f3d4cf" stroke-width="none" opacity="1"></path><path id="SvgjsPath5022" d="M123.757 72.999c-9.942-0.043-18.018 6.635-18.043 14.92 -0.022 8.284 8.018 15.032 17.957 15.08 9.944 0.043 18.018-6.635 18.043-14.918C141.736 79.795 133.7 73.046 123.757 72.999zM114.691 94.612c-2.066-1.658-2.733-4.135-1.739-6.934 2.528-7.123 14.758-11.016 26.092-3.5C137.609 92.664 129.977 100.123 114.691 94.612z" fill="url(#SvgjsRadialGradient5023)" opacity="1"></path><path id="SvgjsPath5027" d="M139.044 84.178c-11.334-7.516-23.563-3.623-26.092 3.5 -0.994 2.798-0.327 5.276 1.739 6.934C129.977 100.123 137.609 92.664 139.044 84.178z" fill="url(#SvgjsRadialGradient5028)" opacity="1"></path><path id="SvgjsPath5031" d="M111.933 81.247c6.592-4.498 14.058-3.956 20.077-3.386C124.653 77.714 120.486 77.213 111.933 81.247z" fill="#c5796d" stroke-width="none" opacity="1"></path><path id="SvgjsPath5032" d="M108.419 88.655c1.807-2.671 3.564-4.351 6.535-6.319 -1.776 0.43-3.052 0.963-5.007 1.944 9.685-6.58 18.436-6.346 25.183-5.36l-4.046 0.469 2.973 0.675c1.69 0.179 4.387-0.234 5.708-0.369l-3.727 1.265c1.922 0.919 4.02 0.629 6.643 0.475l-2.031 1.622c1.865 0.194 3.446-0.335 5.351-0.989 -2.144 3.765-4.103 5.901-7.695 7.897 -1.612 2.208-2.915 3.317-5.439 4.805 0.137 0.221 0.366 0.468 0.778 0.633 -1.035-0.03-1.458-0.112-1.822 0 -0.855 0.469-1.561 0.759-2.384 1.054 0.377 0.269 0.646 0.381 1.173 0.474 -1.02-0.094-1.959-0.311-2.554-0.158 -2.582 0.303-4.583 0.346-7.408-0.211 -1.183-0.263-2.188 0.03-3.111-0.053 0.473-0.116 1.036-0.276 1.265-0.316l-4.11-1.738c15.285 5.374 22.918-1.899 24.353-10.175 -11.334-7.33-23.563-3.533-26.092 3.414 -0.07-1.258 0.429-2.536 1.792-3.678C112.513 85.082 110.226 86.723 108.419 88.655z" fill="#000000" stroke-width="none" opacity="1"></path></g></g><g id="svga-group-facehighlight-single" ><path id="SvgjsPath2753" d="M140.204 113.007c0.035 22.275-17.995 40.365-40.273 40.396 -22.274 0.036-40.361-17.993-40.396-40.272C59.501 90.857 77.53 72.77 99.808 72.735 122.083 72.701 140.171 90.73 140.204 113.007z" fill="url(#SvgjsRadialGradient2754)" opacity="1"></path><path id="SvgjsPath2757" d="M135,55.999c0,19.329-15.671,35-35,35c-19.329,0-35-15.671-35-35s15.671-35,35-35C119.329,20.999,135,36.67,135,55.999z" fill="url(#SvgjsRadialGradient2758)" opacity="1"></path></g><g id="svga-group-eyebrows-left" ><path id="SvgjsPath4322" d="M57.992 72.441c14.723-3.028 33.357 2.799 33.336-0.649 0-0.869-0.892-1.128-1.755-1.194C74.692 69.333 68.299 68.423 57.992 72.441z" fill="#2a232b" stroke-width="none" opacity="1"></path></g><g id="svga-group-eyebrows-right" ><path id="SvgjsPath4323" d="M142.008 72.441c-4.028-0.829-6.352-1.175-12.865-0.904 -7.413 0.219-20.486 2.799-20.471 0.254 0-0.869 0.892-1.128 1.755-1.194C125.38 69.328 131.708 68.426 142.008 72.441z" fill="#2a232b" stroke-width="none" opacity="1"></path></g><g id="svga-group-nose-single" ><path id="SvgjsPath4289" d="M99.044 91.436c0 0-0.827 19.066-0.713 23.254 0.032 1.188 2.32 4.304 2.164 6.575 0 0-4.462-0.325-5.914-0.838 -1.519-0.538-3.869-1.588-2.94-4.521C92.964 111.735 99.044 91.436 99.044 91.436z" fill="#e4b3ab" stroke-width="none" opacity="1"></path><path id="SvgjsPath4290" d="M98.627 119.026c0 0-1.851-0.657-3.02-0.624 -1.064 0.033-1.218-0.676-1.11-1.079 0.108-0.403 0.473-0.654 1.501-0.38C97.027 117.219 98.627 119.026 98.627 119.026zM101.382 119.028c0 0 1.847-0.609 3.02-0.622 1.064-0.013 1.219-0.677 1.11-1.079 -0.108-0.404-0.473-0.657-1.501-0.383C102.982 117.222 101.382 119.028 101.382 119.028z" fill="#c5796d" stroke-width="none" opacity="1"></path></g><g id="svga-group-hair-front" ><path id="SvgjsPath4189" d="M146.93 34.899H51.19l2.047 63.665c0.413-1.002 6.167-11.347 6.883-9.885 27.017-13.333 35.79-30.203 41.162-43.761 -8.006 33.653-27.315 38.394-27.315 38.394 4.23-0.47 16.372-1.724 24.386-10.048 1.049-1.109 9.917-7.806 17.639-28.686 1.598 17.179 9.102 35.856 21.778 43.817 -4.244-8.364-9.812-29.919-10.834-45.113 7.041 34.369 14.163 52.434 20.596 64.606 2.186 4.135 6.498 11.445 5.991 11.344C155.064 127.09 146.93 34.899 146.93 34.899z" fill="#080806" stroke-width="none" opacity="0.1"></path><path id="SvgjsPath4190" d="M123.977 2.768c-3.083-1.172-5.286-2.017-8.009-2.746 -0.046-1-52.547-15.95-79.211 46.22C30 65.827 26.418 96.013 32.644 115.821c1.439 4.387 5.438 10.615 9.24 31.491 1.83 10.049 3.275 17.985 14.18 29.005 2.863 2.896 10.198 8.648 11.516 13.763 4.04-22.237-3.639-28.484-10.942-34.448 -5.008-4.09-9.886-5.026 3.084-1.95 0 0 2.742-0.172 8.082-3.547 -8.452 1.78-14.496-1.088-18.395-7.845 -5.153-8.931-5.126-22.432 0.063-31.404 5.211 2.94 4.943 17.158 5.213 18.975 2.336-7.38-1.068-29.004-1.447-31.296 -0.086-1.031 1.344-4.568 1.344-4.568 0.413-1.002 4.823-9.035 5.539-7.572 27.017-13.333 35.79-30.203 41.162-43.761 -8.006 33.653-26.338 40.13-26.338 40.13 4.23-0.47 15.395-3.46 23.408-11.784 1.049-1.109 10.575-11.543 18.297-32.423 1.598 17.179 9.354 36.563 19.454 48.129 -4.244-8.364-8.146-30.494-9.168-45.688 7.041 34.369 15.773 50.895 22.206 63.066 2.186 4.135 4.633 11.112 4.126 11.011 1.542 7.857-1.689 25.994-16.881 30.317 2.979 0.559 5.525 0.628 7.732 0.33 -16.469 16.26-7.259 25.821-4.188 43.015 0.856-3.048 0.825-6.172 5.466-12.909 8.701-12.646 1.984-12.887 12.664-33.732 11.454-22.361 10.121-31.09 11.148-37.028C169.358 104.3 175.752 22.291 123.977 2.768z" fill="#080806" stroke-width="none" opacity="1"></path><path id="SvgjsPath4191" d="M67.764 188.989c0.423-2.594 0.691-4.943 0.835-7.097C68.471 184.053 68.198 186.411 67.764 188.989zM74 74c12.458-18.076 20-31 24-50 -9.526 21.91-26.401 39.19-40.852 57.299 -0.179-4.145 0.471-27.813 19.151-56.07C53.909 45.714 44.072 74.808 50 92.329c-4.381-9.265-7.631-27.423-4.534-39.992C32.93 82.071 50.324 95.5 55.201 114.308c-1.344-18.182-3.149-14.727-0.619-20.983 0.353-0.856 2.804-5.552 2.941-4.476 1.148-1.746 2.267-3.1 2.597-2.425 27.017-13.333 35.79-30.203 41.162-43.761 -8.006 33.653-26.338 40.13-26.338 40.13 12.432-1.38 32.048-22.872 29.337-54.052C99.279 46.741 86.458 62.405 74 74zM167.643 69.768C168.346 85.58 166.535 100.791 164 116c-2-14-5.646-30.432-12.166-48.964 5.535 25.6 4.855 34.796 5.16 44.698 -13.146-28.627-26.344-53.284-31.411-82.828C124.631 39.739 127.384 55.924 129 68c-4.369-9.761-9.298-21.428-11.084-39.259 0 3.435-0.399 5.222-1.558 9.477 1.731 17.014 9.773 37.078 19.745 48.497 -4.244-8.364-8.146-30.494-9.168-45.688 7.041 34.369 15.773 50.895 22.206 63.066 1.876 3.549 3.938 9.179 4.167 10.643 0.038 0.242 0.031 0.383-0.041 0.368 0.158 0.808 0.264 1.729 0.313 2.728 1.77 4.593 2.528 7.402 1.474 10.785 -1.525 4.895-9.049 15.63-18.668 16.805 8.743 2.063 14.341-2.79 18.97-8.827 -6.923 15.946-21.127 8.797-15.486 51.65 0.701-2.468 1.708-6.844 5.527-12.388 8.701-12.646 1.984-12.887 12.664-33.732 11.454-22.361 10.121-31.09 11.148-37.028C169.274 104.75 170.52 89.027 167.643 69.768zM44.483 143.565c2.989 1.909 6.538 10.618 16.535 9.841C41.105 148.271 42 120.18 42 103c-1.471 4.902-2.685 10.05-3.438 15.315 -11.3-30.764-4.969-64.11 9.831-92.716 -4.203 5.701-8.144 12.5-11.637 20.643 -16.692 48.389-0.499 78.419 0.992 83.356 6.717 22.247 2.683 30.923 18.315 46.719 2.863 2.896 10.198 8.648 11.516 13.763C71.369 164.985 48.613 158.099 44.483 143.565zM142.95 25.75c15.545 14.046 21.195 45.833 21.328 69.442C164.39 100.162 164.413 46.131 142.95 25.75zM154.875 82.765c3.342 20.038-2.521-42.627-24.576-58.441C143.508 35.305 152.316 67.792 154.875 82.765zM70.88 22.753c5.942-4.945-2.793 2-5.802 4.808C54.54 37.09 50.033 46.996 47.94 57.751 51.505 42.729 59.444 32.739 70.88 22.753zM84.705 24.485c2.822-2.594-13.942 8.265-22.912 41.27C68.529 45.157 77.302 31.847 84.705 24.485z" fill="#000000" stroke-width="none" opacity="1"></path><path id="SvgjsPath4192" d="M151.671 107.902c17.19 26.816 3.447 35.355 1.861 40.974C155.307 142.587 164.622 133.223 151.671 107.902zM163.42 128.026c0.103-1 3.263-9.188 0.12-24.545 -1.706-8.337-4.72-16.315-6.759-24.558C160.708 97.38 165.319 109.35 163.42 128.026zM40.778 139.904c0.025-1.461-5.489-18.724 2.449-40.017C31.997 123.286 40.828 137.053 40.778 139.904zM47.054 108.148c-0.2-0.831-0.822-1.722-1.174-2.497 -13.39-29.399-4.231-52.055 7.184-80.645C37.802 57.778 30.55 77.146 47.054 108.148zM76.707 21.78c0.036-0.038 3.867-3.963 3.917-3.95 -0.095-0.025-0.761 0.712-0.836 0.781C58.372 38.149 45.057 58.889 48.989 87.389 46.38 61.056 58.712 40.895 76.707 21.78zM99.998 17.774c-3.237 8.17-26.894 43.475-42.375 62.038C83.633 50.897 99.614 20.587 99.998 17.774zM82.755 80.445c-0.234 0.139-2.196 1.563-2.301 1.506 0.045 0.024 1.552-0.942 1.671-1.005 26.81-14.112 29.966-31.518 36.614-59.983C111.34 47.604 106.258 66.473 82.755 80.445zM155.396 106.15c-4.141-9.261-29.368-64.249-29.976-80.447C125.997 52.586 154.947 105.149 155.396 106.15zM148.657 74.301c0.361 1.587 0.849 3.182 1.121 4.785 -3.42-20.115-5.357-34.698-17.969-50.635C140.228 39.304 143.225 50.447 148.657 74.301zM136.445 21.347c0 0.068-0.079 0.248-0.18 0.171 16.048 12.281 24.425 58.902 24.777 59.902 -1.188-3.375 0.299-28.648-19.299-53.957 -1.58-2.04-3.319-4.493-5.468-5.976 0.061 0.017 0.187-0.063 0.143-0.136 0.066 0.106 0.143 0.201 0.221 0.3C136.731 21.704 136.445 21.53 136.445 21.347z" fill="#171714" stroke-width="none" opacity="1"></path><path id="SvgjsPath4193" d="M152.811 150.46c-5.664 16.369-6.497 17.491-6.497 17.491C145.881 168.951 149.452 157.542 152.811 150.46zM145.609 171.244c-0.081 0.287-0.612 2.203-0.539 1.967 1.925-5.472 3.814-6.661 5.754-14.988C148.631 165.023 148.427 163.099 145.609 171.244zM146.069 171.593c-3.171 4.709-3.991 7.679-3.865 7.369 0.093-0.278 0.782-1.668 1.515-2.844 1.649-2.668 3.643-4.701 5.109-9.896C148.427 167.289 147.835 169.096 146.069 171.593zM50.233 166.038c3.835 4.714-0.635 0.469-6.922-14.783C45.74 159.453 47.645 162.625 50.233 166.038zM55.452 171.15c-1.002-0.743-7.178-6.813-9.562-11.396C49.341 167.897 56.454 171.917 55.452 171.15zM52.553 170.327c10.604 9.982-2.789-2.537-3.953-4.89C48.6 165.438 48.617 166.515 52.553 170.327z" fill="#080806" stroke-width="none" opacity="1"></path><path id="SvgjsPath4194" d="M167.879 61.476c-12.103-57.797-52.05-61.709-49.288-60.534C82.706-11.776 39.498 11.482 30.849 62.735c-2.427 14.398-3.457 40.922 0.152 51.061 2.023 5.684 3.274 8.689 5.778 15.28 7.917 21.966-0.744 33.347 24.319 52.629 3.111 2.404 5.166 5.576 6.57 9.28 0.011-0.021 0.206-1.185 0.21-1.21 3.034-17.218 1.952-26.859-14.556-37.602 4.582 2.664 10.785 1.913 14.707-2.328 -18.17 5.154-26.956-19.264-18.035-37.71 3.31 7.742 4.615 15.037 4.415 19.26 3.667-11.231 1.363-15.783-0.26-36.23 1.382-3.195 3.084-5.784 5.23-8.52 18.811-9.406 32.957-18.133 42.583-45.857 -2.319 7.76-3.984 15.355-10.583 25.527 -8.651 13.359-12.577 13.816-17.96 16.7 4.453 0 10.501-1.322 18.886-6.369 -1.375 1.17-2.601 2.299-5.326 4.209 13.693-8.82 23.971-21.423 29.379-42.638 -3.583 16.868-5.419 32.085-22.899 41.488 17.491-8.862 20.781-21.575 23.227-41.07 1.759 30.597 16.143 46.195 21.084 49.76 -6.279-10.305-9.001-34.624-11.224-50.274 2.413 14.985 1.465 10.331 5.243 24.954 6.901 26.356 15.578 41.213 20.585 51.722 2.062 14.443-4.134 27.799-17.385 30.438 3.135 1.249 6.225 1.409 8.729 0.8 -18.508 18.508-7.2 24.044-3.8 43.63 1.291-8.023 5.813-11.861 9.25-18.229 3.456-6.434 2.206-13.346 6.01-21.3C167.924 123.713 178.348 111.793 167.879 61.476zM136.719 145.355c10.184-1.965 18.639-15.794 17.193-27.181 3.127 7.31 3.785 12.573-0.413 18.921C149.909 143.246 143.775 147.014 136.719 145.355zM155.356 136.595L155.356 136.595c-0.008-0.008-0.009-0.01-0.027-0.01C155.316 136.585 155.341 136.58 155.356 136.595zM168.709 105.035c-2.086 29.331-15.352 38.543-17.63 54 -2.551 17.787-8.397 14.561-11.22 28.42 -3.092-17.286-11.779-25.501 4.99-41.729 7.597-2.349 15.125-11.563 12.619-23.141 -3.939-18.205-19.696-28.375-30.75-85.2 0.001 0.021 0.004 0.041 0.005 0.062 -0.188-0.892-0.424-1.969-0.574-2.721 -0.041-0.039-1.392-8.322 0.028 1.145 0.448 15.911 4.518 40.049 9.187 49.243 -14.321-18.218-17.941-38.157-18.659-46.634 0.132-1.054 0.262-2.123 0.391-3.217v0.001c0.594-4.784 1.755-12.568-0.516 1.36 -7.278 20.704-16.344 31.664-18.591 34.042 -7.751 8.047-19.589 11.732-22.89 12.03 19.078-8.456 25.617-31.208 28.85-51.12 -0.116 0.562-1.372 6.57-1.26 6.01 -5.817 15.457-13.401 33.887-42.791 48.39 21.149-26.064 32.342-46.549 37.38-60.3 -10.229 24.39-39.564 59.988-42.96 68.23 -1.051-33.877 10.756-57.804 22.45-68.31 -12.185 9.517-27.02 37.211-24.03 73.01 1.093 6.624 3.499 23.741 2.033 30.36 0.267-4.023-0.573-9.699-1.343-12.41v-0.011c-3.027-10.95-10.455-19.118-11.85-31.479 -1.26-11.15-0.79-22.64 4.16-32.88 -3.67 6.9-5.469 14.376-5.76 22.17 -0.845 22.599 5.915 24.877 9.065 36.278 -9.468 16.356-1.527 45.11 17.855 39.802 -11.657 9.495-21.668-7.561-23.435-10.817 -2.728-6.707-3.268-14.404-3.604-21.543 -0.12 51.119 33.988 27.358 27.697 71.093 -0.804-3.887-10.145-12.2-11.137-13.202 -15.067-15.233-11.885-24.441-17-41.98 -2.092-9.778-4.664-13.319-6.303-18.315 -6.389-20.335-2.216-50.915 4.113-69.265 12.133-28.275 31.378-46.868 62-47.87 7.224-0.239 22.339 2.489 13.6 1.26 4.341 0.897 6.861 1.884 10.97 3.44 50.765 19.143 45.277 99.834 44.92 101.77C168.719 105.005 168.709 105.015 168.709 105.035z" fill="#000000" stroke-width="none" opacity="1"></path></g><g id="svga-group-glasses-single" ><path id="SvgjsPath4324" d="M91.69 89.23c-3.71 7.46-14.12 8.15-17.78 8.15H61.79c-5.75 0-10.86-7.99-10.86-14.29v-6.16c0-0.23 0.11-0.46 0.29-0.7L91.69 89.23zM110.37 76.65c-2.07 1.43-3.39 3.35-3.39 5.92v0.5c0 2.44 0.5 4.47 1.34 6.15 3.71 7.46 14.12 8.15 17.78 8.15h12.12c4.09 0 7.85-4.05 9.68-8.66L110.37 76.65z" fill="#ffffff" stroke-width="none" opacity="0.2"></path><path id="SvgjsPath4325" d="M91.69 89.23L51.21 76.22c0.99-1.32 4.4-2.7 6.15-2.91 2.18-0.26 6.63-0.69 11.94-0.69 8.86 0 23.72 1.29 23.72 9.96v0.5C93.02 85.52 92.52 87.55 91.69 89.23zM149.07 83.08v-6.16c0-0.23-0.11-0.46-0.29-0.7 -0.99-1.32-4.4-2.7-6.15-2.91 -2.18-0.26-6.63-0.69-11.94-0.69 -6.23 0-15.41 0.64-20.33 4.03l37.53 12.06C148.64 86.85 149.07 84.9 149.07 83.08z" fill="#ffffff" stroke-width="none" opacity="0.4"></path><path id="SvgjsPath4326" d="M149.73 78.68v-1.76c0-2.1-4.9-3.99-7.01-4.25 -9.42-1.12-31.52-2.02-35.7 6.76 -2.78-0.92-5.88-1.28-7.02-1.29 -1.14 0.01-4.24 0.37-7.02 1.29 -4.17-8.77-26.27-7.88-35.7-6.76 -2.11 0.25-7.01 2.14-7.01 4.25v1.76H45.5v2.36h4.77v2.04c0 6.3 5.15 14.94 11.51 14.94h12.12c8.33 0 19.76-3.13 19.76-14.94v-0.5c0-0.76-0.1-1.46-0.29-2.12 3.46-1.07 5.55-1.29 6.62-1.31 1.07 0.01 3.16 0.24 6.62 1.31 -0.19 0.66-0.29 1.36-0.29 2.12v0.5c0 11.81 11.44 14.94 19.76 14.94h12.12c6.36 0 11.51-8.64 11.51-14.94v-2.04h4.77v-2.36H149.73zM92.86 83.08c0 13.11-14.5 14.13-18.95 14.13H61.79c-5.66 0-10.7-7.9-10.7-14.13v-6.16c0-1.31 4.09-3.18 6.29-3.44 2.17-0.26 6.62-0.69 11.92-0.69 8.8 0 23.55 1.27 23.55 9.79V83.08zM148.91 83.08c0 6.23-5.04 14.13-10.7 14.13h-12.12c-4.45 0-18.95-1.02-18.95-14.13v-0.5c0-8.52 14.76-9.79 23.55-9.79 5.31 0 9.75 0.43 11.92 0.69 2.2 0.26 6.3 2.13 6.3 3.44V83.08z" fill="#130b3c" stroke-width="none" opacity="1"></path></g></g></g><rect id="SvgjsRect1033" width="200" height="15" x="0" y="185" fill="#ecf0f1" opacity="0.5" style="display:none;"></rect><text id="SvgjsText1034" font-family="&quot;Roboto&quot;, &quot;Helvetica Neue&quot;, Helvetica, Arial, sans-serif" style="font-size:0.84em;font-family:&quot;Roboto&quot;, &quot;Helvetica Neue&quot;, Helvetica, Arial, sans-serif;text-anchor:middle;font-weight:400;display:none;" font-size="0.84em" text-anchor="middle" font-weight="400" fill="#000000" x="100" y="185"><tspan id="SvgjsTspan1035" dy="1.2em" x="100" style="font-size:0.84em;font-family:&quot;Roboto&quot;, &quot;Helvetica Neue&quot;, Helvetica, Arial, sans-serif;text-anchor:middle;font-weight:400;">Created by face.co</tspan></text></g><defs id="SvgjsDefs1001"><radialGradient id="SvgjsRadialGradient2754" cx="100" cy="113" r="40" gradientUnits="userSpaceOnUse" class="svga-on-canvas-facehighlight-gradient-single-0"><stop id="SvgjsStop2755" stop-opacity="0.5" stop-color="#fff4f3" offset="0" ></stop><stop id="SvgjsStop2756" stop-opacity="0" stop-color="#f3d4cf" offset="0.9" ></stop></radialGradient><radialGradient id="SvgjsRadialGradient2758" cx="100" cy="57" r="36" gradientUnits="userSpaceOnUse" class="svga-on-canvas-facehighlight-gradient-single-1"><stop id="SvgjsStop2759" stop-opacity="0.5" stop-color="#fff4f3" offset="0" ></stop><stop id="SvgjsStop2760" stop-opacity="0" stop-color="#f3d4cf" offset="0.9" ></stop></radialGradient><linearGradient id="SvgjsLinearGradient4250" x1="99.98" y1="171.27" x2="99.98" y2="136.351" gradientUnits="userSpaceOnUse" class="svga-on-canvas-chinshadow-gradient-single-0"><stop id="SvgjsStop4251" stop-opacity="0.8" stop-color="#e4b3ab" offset="0" ></stop><stop id="SvgjsStop4252" stop-opacity="1" stop-color="#c5796d" offset="0.7" ></stop></linearGradient><linearGradient id="SvgjsLinearGradient4278" x1="100" y1="143" x2="100" y2="140" gradientUnits="userSpaceOnUse" class="svga-on-canvas-mouth-gradient-single-0"><stop id="SvgjsStop4279" stop-opacity="1" stop-color="#ebc3bd" offset="0.1" ></stop><stop id="SvgjsStop4280" stop-opacity="1" stop-color="#e4b3ab" offset="1" ></stop></linearGradient><radialGradient id="SvgjsRadialGradient4399" cx="-558.588" cy="-490.918" r="84.646" gradientTransform="matrix(0.096 -0.0248 0.0245 0.0961 140.5478 120.3577)" gradientUnits="userSpaceOnUse" class="svga-on-canvas-eyesiris-gradient-left-1"><stop id="SvgjsStop4400" stop-opacity="0.8" stop-color="#ffffff" offset="0" ></stop><stop id="SvgjsStop4401" stop-opacity="0" stop-color="#ffffff" offset="1" ></stop></radialGradient><radialGradient id="SvgjsRadialGradient4403" cx="-565.337" cy="-492.691" r="84.644" gradientTransform="matrix(0.0991 8.856325e-004 -0.0011 0.0991 130.3774 136.3533)" gradientUnits="userSpaceOnUse" class="svga-on-canvas-eyesiris-gradient-left-2"><stop id="SvgjsStop4404" stop-opacity="0.8" stop-color="#ffffff" offset="0" ></stop><stop id="SvgjsStop4405" stop-opacity="0" stop-color="#ffffff" offset="1" ></stop></radialGradient><linearGradient id="SvgjsLinearGradient4409" x1="122.283" y1="93.047" x2="123.61" y2="91.466" gradientTransform="matrix(1 0 0 1 -52 0)" gradientUnits="userSpaceOnUse" class="svga-on-canvas-eyesiris-gradient-left-5"><stop id="SvgjsStop4410" stop-opacity="1" stop-color="#ffffff" offset="0" ></stop><stop id="SvgjsStop4411" stop-opacity="0" stop-color="#ffffff" offset="1" ></stop></linearGradient><linearGradient id="SvgjsLinearGradient4413" x1="127" y1="85" x2="125" y2="87" gradientTransform="matrix(1 0 0 1 -50 0)" gradientUnits="userSpaceOnUse" class="svga-on-canvas-eyesiris-gradient-left-6"><stop id="SvgjsStop4414" stop-opacity="1" stop-color="#ffffff" offset="0" ></stop><stop id="SvgjsStop4415" stop-opacity="0" stop-color="#ffffff" offset="1" ></stop></linearGradient><linearGradient id="SvgjsLinearGradient4417" x1="130" y1="81" x2="126" y2="85" gradientTransform="matrix(1 0 0 1 -50 0)" gradientUnits="userSpaceOnUse" class="svga-on-canvas-eyesiris-gradient-left-7"><stop id="SvgjsStop4418" stop-opacity="1" stop-color="#ffffff" offset="0" ></stop><stop id="SvgjsStop4419" stop-opacity="0" stop-color="#ffffff" offset="1" ></stop></linearGradient><radialGradient id="SvgjsRadialGradient4422" cx="-578.76" cy="-490.73" r="84.646" gradientTransform="matrix(0.096 -0.0248 0.0245 0.0961 192.4794 119.8404)" gradientUnits="userSpaceOnUse" class="svga-on-canvas-eyesiris-gradient-right-1"><stop id="SvgjsStop4423" stop-opacity="0.8" stop-color="#ffffff" offset="0" ></stop><stop id="SvgjsStop4424" stop-opacity="0" stop-color="#ffffff" offset="1" ></stop></radialGradient><radialGradient id="SvgjsRadialGradient4426" cx="-584.778" cy="-487.329" r="84.644" gradientTransform="matrix(0.0991 8.856325e-004 -0.0011 0.0991 182.3104 135.839)" gradientUnits="userSpaceOnUse" class="svga-on-canvas-eyesiris-gradient-right-2"><stop id="SvgjsStop4427" stop-opacity="0.8" stop-color="#ffffff" offset="0" ></stop><stop id="SvgjsStop4428" stop-opacity="0" stop-color="#ffffff" offset="1" ></stop></radialGradient><linearGradient id="SvgjsLinearGradient4432" x1="120.284" y1="93.047" x2="121.611" y2="91.467" gradientUnits="userSpaceOnUse" class="svga-on-canvas-eyesiris-gradient-right-5"><stop id="SvgjsStop4433" stop-opacity="1" stop-color="#ffffff" offset="0" ></stop><stop id="SvgjsStop4434" stop-opacity="0" stop-color="#ffffff" offset="1" ></stop></linearGradient><linearGradient id="SvgjsLinearGradient4436" x1="127" y1="85" x2="125" y2="87" gradientUnits="userSpaceOnUse" class="svga-on-canvas-eyesiris-gradient-right-6"><stop id="SvgjsStop4437" stop-opacity="1" stop-color="#ffffff" offset="0" ></stop><stop id="SvgjsStop4438" stop-opacity="0" stop-color="#ffffff" offset="1" ></stop></linearGradient><linearGradient id="SvgjsLinearGradient4440" x1="130" y1="81" x2="126" y2="85" gradientUnits="userSpaceOnUse" class="svga-on-canvas-eyesiris-gradient-right-7"><stop id="SvgjsStop4441" stop-opacity="1" stop-color="#ffffff" offset="0" ></stop><stop id="SvgjsStop4442" stop-opacity="0" stop-color="#ffffff" offset="1" ></stop></linearGradient><radialGradient id="SvgjsRadialGradient4976" cx="126.672" cy="88.669" r="14.058" gradientTransform="matrix(-1.0357 0 0 1.0357 204.6606 -3.2718)" gradientUnits="userSpaceOnUse" class="svga-on-canvas-eyesback-gradient-left-0"><stop id="SvgjsStop4977" stop-opacity="1" stop-color="#ffffff" offset="0" ></stop><stop id="SvgjsStop4978" stop-opacity="1" stop-color="#fdfefe" offset="0.544" ></stop><stop id="SvgjsStop4979" stop-opacity="1" stop-color="#f6f8f9" offset="0.74" ></stop><stop id="SvgjsStop4980" stop-opacity="1" stop-color="#eaeff2" offset="0.879" ></stop><stop id="SvgjsStop4981" stop-opacity="1" stop-color="#d9e3e8" offset="0.992" ></stop><stop id="SvgjsStop4982" stop-opacity="1" stop-color="#d8e2e7" offset="1" ></stop></radialGradient><radialGradient id="SvgjsRadialGradient4984" cx="126.672" cy="88.669" r="14.058" gradientTransform="matrix(1.0357 0 0 1.0357 -4.6606 -3.2718)" gradientUnits="userSpaceOnUse" class="svga-on-canvas-eyesback-gradient-right-0"><stop id="SvgjsStop4985" stop-opacity="1" stop-color="#ffffff" offset="0" ></stop><stop id="SvgjsStop4986" stop-opacity="1" stop-color="#fdfefe" offset="0.544" ></stop><stop id="SvgjsStop4987" stop-opacity="1" stop-color="#f6f8f9" offset="0.74" ></stop><stop id="SvgjsStop4988" stop-opacity="1" stop-color="#eaeff2" offset="0.879" ></stop><stop id="SvgjsStop4989" stop-opacity="1" stop-color="#d9e3e8" offset="0.992" ></stop><stop id="SvgjsStop4990" stop-opacity="1" stop-color="#d8e2e7" offset="1" ></stop></radialGradient><radialGradient id="SvgjsRadialGradient4992" cx="126.672" cy="88.669" r="14.058" gradientTransform="matrix(-1.0357 0 0 1.0357 204.6606 -3.2718)" gradientUnits="userSpaceOnUse" class="svga-on-canvas-eyesfront-gradient-left-0"><stop id="SvgjsStop4993" stop-opacity="1" stop-color="#ffffff" offset="0" ></stop><stop id="SvgjsStop4994" stop-opacity="1" stop-color="#fdfefe" offset="0.544" ></stop><stop id="SvgjsStop4995" stop-opacity="1" stop-color="#f6f8f9" offset="0.74" ></stop><stop id="SvgjsStop4996" stop-opacity="1" stop-color="#eaeff2" offset="0.879" ></stop><stop id="SvgjsStop4997" stop-opacity="1" stop-color="#d9e3e8" offset="0.992" ></stop><stop id="SvgjsStop4998" stop-opacity="1" stop-color="#d8e2e7" offset="1" ></stop></radialGradient><radialGradient id="SvgjsRadialGradient5002" cx="123.623" cy="87.41" fx="136.422" fy="87.446" r="18.203" gradientTransform="matrix(0.9998 0.0208 0.0166 -0.7998 -48.6744 154.7508)" gradientUnits="userSpaceOnUse" class="svga-on-canvas-eyesfront-gradient-left-3"><stop id="SvgjsStop5003" stop-opacity="1" stop-color="#e4b3ab" offset="0" ></stop><stop id="SvgjsStop5004" stop-opacity="0.3" stop-color="#e4b3ab" offset="0.7" ></stop><stop id="SvgjsStop5005" stop-opacity="0" stop-color="#f3d4cf" offset="1" ></stop></radialGradient><radialGradient id="SvgjsRadialGradient5007" cx="72.134" cy="102.21" r="22.89" gradientTransform="matrix(0.9878 -0.0515 0.0518 0.9833 -2.5169 7.7255)" gradientUnits="userSpaceOnUse" class="svga-on-canvas-eyesfront-gradient-left-4"><stop id="SvgjsStop5008" stop-opacity="0" stop-color="#000000" offset="0.95" ></stop><stop id="SvgjsStop5009" stop-opacity="0.3" stop-color="#000000" offset="1" ></stop></radialGradient><radialGradient id="SvgjsRadialGradient5013" cx="126.672" cy="88.669" r="14.058" gradientTransform="matrix(1.0357 0 0 1.0357 -4.6606 -3.2718)" gradientUnits="userSpaceOnUse" class="svga-on-canvas-eyesfront-gradient-right-0"><stop id="SvgjsStop5014" stop-opacity="1" stop-color="#ffffff" offset="0" ></stop><stop id="SvgjsStop5015" stop-opacity="1" stop-color="#fdfefe" offset="0.544" ></stop><stop id="SvgjsStop5016" stop-opacity="1" stop-color="#f6f8f9" offset="0.74" ></stop><stop id="SvgjsStop5017" stop-opacity="1" stop-color="#eaeff2" offset="0.879" ></stop><stop id="SvgjsStop5018" stop-opacity="1" stop-color="#d9e3e8" offset="0.992" ></stop><stop id="SvgjsStop5019" stop-opacity="1" stop-color="#d8e2e7" offset="1" ></stop></radialGradient><radialGradient id="SvgjsRadialGradient5023" cx="123.623" cy="87.41" fx="136.422" fy="87.446" r="18.203" gradientTransform="matrix(-0.9998 0.0208 -0.0166 -0.7998 248.6744 154.7508)" gradientUnits="userSpaceOnUse" class="svga-on-canvas-eyesfront-gradient-right-3"><stop id="SvgjsStop5024" stop-opacity="1" stop-color="#e4b3ab" offset="0" ></stop><stop id="SvgjsStop5025" stop-opacity="0.3" stop-color="#e4b3ab" offset="0.7" ></stop><stop id="SvgjsStop5026" stop-opacity="0" stop-color="#f3d4cf" offset="1" ></stop></radialGradient><radialGradient id="SvgjsRadialGradient5028" cx="72.134" cy="102.21" r="22.89" gradientTransform="matrix(-0.9878 -0.0515 -0.0518 0.9833 202.5169 7.7255)" gradientUnits="userSpaceOnUse" class="svga-on-canvas-eyesfront-gradient-right-4"><stop id="SvgjsStop5029" stop-opacity="0" stop-color="#000000" offset="0.95" ></stop><stop id="SvgjsStop5030" stop-opacity="0.3" stop-color="#000000" offset="1" ></stop></radialGradient></defs></svg>